<svg width="1160" height="947" viewBox="0 0 1160 947" fill="none" xmlns="http://www.w3.org/2000/svg">
<g filter="url(#filter0_f_11_6)">
<path d="M555.4 316.612C557.26 315.262 558.709 314.955 560.869 314.955C581.43 314.955 593.02 304.132 613.152 301.615C622.292 300.473 648.237 296.259 653.006 308.658C656.299 317.219 645.283 331.8 641.572 338.155C627.096 362.947 610.932 385.521 592.189 407.093C568.545 434.305 550.845 467.78 522.754 491.027C489.154 518.834 461.255 551.597 431.363 583.247C415.96 599.556 395.123 618.234 373.777 625.919C365.536 628.885 355.993 629.245 347.263 629.73L346.533 629.771C334.141 630.459 321.918 631.139 309.48 631.139C307.608 631.139 301.616 632.223 300.2 630.807C299.523 630.13 300.763 629.699 301.028 629.316C302.744 626.838 303.386 622.551 304.84 619.87C314.832 601.443 326.997 583.878 338.645 566.51C363.667 529.205 389.302 492.08 417.36 456.973C431.87 438.817 448.063 422.787 462.766 405.27C481.277 383.213 501.989 363.359 523.417 344.121C533.726 334.866 544.149 324.781 555.4 316.612Z" fill="#432DCE"/>
<path d="M758.732 418.693C760.226 415.446 765.766 398.183 771.16 396.984C779.372 396.984 776.39 406.931 781.6 409.247C791.997 413.868 792.39 420.407 799.498 428.304C808.128 437.893 818.49 434.124 829.989 436.921C844.027 440.336 858.876 446.457 859.155 463.767C859.542 487.783 851.189 510.363 844.24 533.036C837.859 553.859 824.184 572.076 808.115 586.396C788.226 604.118 763.892 617.225 741.249 630.973C733.738 635.533 723.712 643.874 714.652 645.887C702.234 648.647 687.745 643.444 676.703 638.596C674.219 637.505 667.56 635.11 666.843 631.884C666.579 630.695 667.193 629.662 667.755 628.653L668.134 627.972C673.389 618.541 678.557 609.266 683.249 599.487C711.508 540.592 731.424 478.041 758.732 418.693Z" fill="#CE2DC8"/>
</g>
<defs>
<filter id="filter0_f_11_6" x="0" y="0" width="1159.17" height="946.655" filterUnits="userSpaceOnUse" color-interpolation-filters="sRGB">
<feFlood flood-opacity="0" result="BackgroundImageFix"/>
<feBlend mode="normal" in="SourceGraphic" in2="BackgroundImageFix" result="shape"/>
<feGaussianBlur stdDeviation="150" result="effect1_foregroundBlur_11_6"/>
</filter>
</defs>
</svg>
